<?xml version="1.0" standalone="no"?>
<!DOCTYPE svg PUBLIC "-//W3C//DTD SVG 20010904//EN"
 "http://www.w3.org/TR/2001/REC-SVG-20010904/DTD/svg10.dtd">
<svg version="1.0" xmlns="http://www.w3.org/2000/svg"
 width="1024.000000pt" height="1024.000000pt" viewBox="0 0 1024.000000 1024.000000"
 preserveAspectRatio="xMidYMid meet">
<metadata>
Created by potrace 1.11, written by Peter Selinger 2001-2013
</metadata>
<g transform="translate(0.000000,1024.000000) scale(0.100000,-0.100000)"
fill="#000000" stroke="none">
<path d="M5575 8580 c-219 -49 -402 -152 -560 -315 -100 -103 -149 -174 -207
-295 -77 -162 -103 -281 -103 -475 0 -161 9 -222 57 -359 93 -275 286 -495
554 -632 46 -24 84 -41 84 -38 0 4 6 2 13 -4 12 -11 147 -49 202 -58 120 -19
295 -19 390 0 227 46 431 152 579 302 59 60 116 126 116 135 0 4 4 9 9 11 29
11 152 271 166 350 3 17 8 34 10 38 11 18 23 110 29 221 5 92 18 161 40 214 8
18 12 36 8 39 -3 3 0 6 6 6 7 0 12 7 12 14 0 8 13 34 30 58 93 136 213 217
360 245 42 8 174 7 213 -1 49 -11 141 -49 166 -67 13 -11 28 -19 34 -19 15 0
140 -131 157 -165 8 -16 21 -38 30 -49 8 -10 14 -20 13 -22 -3 -4 3 -23 14
-51 4 -10 7 -22 8 -28 1 -5 4 -23 8 -40 4 -16 10 -81 12 -144 3 -62 8 -117 10
-121 3 -4 7 -25 10 -46 4 -22 8 -47 11 -56 3 -9 6 -25 8 -35 8 -39 59 -161 93
-223 130 -238 326 -410 588 -515 11 -5 22 -9 25 -10 3 0 30 -8 60 -17 96 -29
216 -44 315 -41 65 1 170 10 170 13 0 1 14 4 30 6 79 13 286 87 293 106 2 4
12 8 23 8 10 0 19 5 19 10 0 6 6 10 13 10 15 0 141 94 204 152 53 50 141 158
169 208 10 19 22 37 25 40 9 8 66 131 88 192 21 59 29 90 37 143 2 17 7 37 10
45 10 24 13 271 4 320 -4 25 -10 59 -13 75 -7 45 -37 144 -59 195 -28 66 -86
178 -98 190 -3 3 -19 25 -35 49 -43 64 -169 188 -245 242 -195 139 -376 199
-618 205 -116 4 -160 1 -240 -16 -147 -31 -157 -35 -292 -102 -204 -102 -374
-270 -477 -471 l-40 -78 -29 38 c-97 130 -284 250 -440 284 -114 24 -301 16
-409 -19 -142 -46 -295 -153 -373 -261 l-31 -43 -31 63 c-40 78 -95 162 -140
214 -63 72 -172 173 -206 191 -19 10 -34 22 -34 26 0 5 -6 8 -14 8 -8 0 -16 4
-18 9 -4 11 -157 84 -223 106 -162 56 -424 71 -590 35z m303 -206 c31 -2 73
-6 92 -9 54 -9 212 -64 242 -86 15 -10 31 -19 36 -19 4 0 24 -11 43 -25 19
-14 45 -33 59 -42 74 -53 200 -203 244 -293 154 -312 128 -654 -71 -928 -61
-82 -66 -88 -148 -158 -52 -44 -156 -114 -170 -114 -2 0 -29 -11 -59 -25 -57
-26 -162 -54 -231 -61 -341 -36 -662 113 -846 393 -44 68 -106 200 -115 247
-4 20 -8 42 -20 96 -9 44 -11 223 -2 270 5 25 11 59 13 75 5 28 12 50 31 100
4 11 8 22 8 25 1 3 7 15 14 28 7 12 9 22 5 22 -4 0 -3 4 2 8 6 4 17 21 25 37
32 66 118 174 184 235 139 126 338 213 515 225 34 2 65 6 68 9 3 3 10 3 15 0
5 -3 34 -7 66 -10z m3477 -23 c284 -77 506 -279 609 -553 13 -37 27 -79 30
-95 20 -108 23 -147 20 -232 -1 -53 -5 -107 -8 -121 -2 -14 -7 -38 -11 -55
-38 -190 -180 -403 -343 -517 -26 -18 -49 -35 -52 -38 -23 -25 -218 -101 -290
-115 -142 -26 -286 -22 -400 12 -30 9 -63 18 -73 20 -44 8 -214 104 -267 151
-59 52 -140 139 -140 149 0 7 -3 13 -7 13 -19 0 -98 148 -131 245 -49 143 -58
326 -23 480 66 287 287 535 562 631 38 13 77 25 86 27 10 1 24 6 31 11 7 4 16
6 18 3 3 -3 17 -2 32 3 55 15 273 4 357 -19z"/>
<path d="M5760 7879 c-25 -4 -58 -9 -75 -12 -16 -2 -47 -12 -67 -20 -21 -9
-38 -13 -38 -9 0 4 -4 2 -8 -4 -4 -6 -22 -19 -40 -28 -64 -33 -136 -102 -189
-181 -35 -52 -63 -110 -53 -110 2 0 -2 -9 -8 -20 -11 -22 -25 -97 -24 -129 2
-32 15 -37 105 -38 98 -2 112 5 122 62 9 54 49 131 88 170 19 20 62 49 94 65
48 25 71 30 133 31 46 1 90 -4 115 -14 60 -22 130 -73 156 -112 13 -19 27 -37
30 -40 8 -6 28 -69 35 -107 9 -50 25 -57 121 -55 47 1 90 5 95 10 16 16 10 88
-12 146 -5 15 -8 26 -5 26 5 0 -45 97 -70 135 -29 45 -123 132 -169 158 -86
48 -145 67 -223 72 -29 2 -56 5 -60 8 -5 2 -28 0 -53 -4z"/>
<path d="M9129 7886 c-2 -2 -29 -6 -59 -10 -196 -21 -355 -137 -441 -319 -16
-36 -35 -95 -41 -132 -14 -86 -6 -95 88 -96 117 -2 112 -4 124 44 50 190 179
292 356 282 149 -9 283 -127 302 -267 2 -21 11 -43 18 -49 8 -7 51 -11 101
-11 116 0 121 6 94 127 -13 61 -31 105 -65 160 -33 55 -127 155 -145 155 -6 0
-11 4 -11 8 0 10 -112 67 -160 81 -19 6 -60 13 -90 17 -30 3 -58 8 -61 10 -3
2 -8 2 -10 0z"/>
<path d="M3178 6366 c-10 -11 -18 -31 -19 -45 0 -14 -1 -502 -1 -1083 -1 -582
-4 -1058 -8 -1058 -3 0 -24 20 -45 44 -149 172 -433 289 -698 288 -88 0 -116
-3 -207 -18 -344 -56 -661 -303 -837 -650 -47 -93 -91 -195 -97 -225 -2 -8 -6
-21 -9 -29 -7 -18 -37 -136 -43 -170 -3 -14 -7 -32 -10 -42 -17 -57 -25 -390
-12 -493 17 -126 54 -290 71 -312 5 -7 7 -13 3 -13 -5 0 12 -52 34 -105 93
-215 156 -314 302 -475 31 -34 123 -110 178 -147 99 -67 276 -146 355 -159 11
-1 31 -6 45 -9 109 -28 345 -27 465 0 59 14 171 56 230 87 93 48 213 146 250
201 10 15 20 25 24 21 3 -3 6 -47 7 -97 1 -111 15 -147 56 -147 49 -1 596 -1
636 0 20 0 46 7 57 16 20 15 20 27 20 2311 l1 2295 -25 17 c-22 14 -67 16
-365 16 -324 0 -341 -1 -358 -19z m-448 -2550 c68 -14 197 -86 258 -144 110
-106 202 -275 227 -417 2 -16 7 -41 10 -55 11 -50 6 -217 -10 -290 -21 -101
-72 -240 -87 -240 -5 0 -8 -6 -8 -14 0 -18 -75 -120 -124 -168 -52 -52 -165
-124 -208 -134 -5 -1 -9 -2 -10 -4 -20 -15 -132 -28 -214 -25 -108 5 -180 29
-274 91 -117 77 -178 151 -250 303 -32 68 -44 107 -68 216 -8 41 -8 241 2 293
22 127 92 283 168 376 45 55 146 143 160 139 4 -2 8 1 8 6 0 11 115 59 160 66
19 4 36 8 38 10 6 6 182 -1 222 -9z"/>
<path d="M20 5850 c-20 -20 -20 -49 -20 -2049 0 -1933 1 -2030 18 -2051 18
-22 18 -22 372 -21 195 0 363 2 374 4 10 2 24 11 31 20 9 12 11 494 11 2045
-1 1989 -1 2030 -20 2051 -19 21 -25 21 -383 21 -347 -1 -365 -2 -383 -20z"/>
<path d="M5465 4495 c-49 -7 -101 -16 -115 -20 -14 -3 -36 -8 -49 -11 -13 -3
-39 -11 -57 -19 -19 -8 -34 -12 -34 -10 0 9 -228 -92 -240 -106 -3 -3 -12 -9
-20 -13 -67 -32 -213 -146 -276 -216 -91 -100 -104 -116 -104 -122 0 -4 -7
-13 -15 -21 -42 -43 -169 -291 -181 -356 -3 -14 -8 -29 -12 -35 -3 -6 -7 -15
-8 -21 -1 -5 -9 -37 -17 -70 -9 -33 -18 -78 -22 -100 -3 -22 -8 -47 -10 -55
-25 -82 -17 -439 12 -565 3 -11 9 -38 13 -61 13 -63 64 -212 96 -279 83 -178
207 -342 344 -454 14 -11 32 -27 40 -34 21 -19 157 -107 166 -107 4 0 15 -6
23 -13 32 -27 206 -93 321 -122 38 -9 76 -17 93 -20 12 -1 42 -6 67 -11 58
-10 356 -11 435 -2 217 27 447 112 622 231 157 106 356 334 425 487 48 105 58
130 77 185 20 60 36 118 45 165 3 14 7 36 10 50 26 117 26 433 1 520 -2 8 -6
27 -9 42 -26 154 -108 348 -213 508 -89 135 -193 253 -302 340 -25 19 -49 40
-55 45 -21 20 -191 121 -256 152 -94 45 -201 80 -335 109 -95 21 -343 26 -460
9z m353 -676 c61 -12 176 -61 187 -78 3 -6 10 -9 14 -7 11 7 122 -102 167
-164 70 -96 124 -230 143 -355 8 -51 7 -239 -1 -285 -14 -81 -50 -193 -70
-215 -4 -5 -8 -15 -8 -23 0 -41 -122 -187 -228 -274 -70 -57 -216 -97 -338
-93 -170 4 -301 70 -428 215 -75 85 -154 256 -172 371 -3 19 -7 45 -9 59 -7
41 -7 172 -1 210 3 19 8 46 10 60 8 49 28 116 56 182 83 196 236 339 415 389
74 20 188 24 263 8z"/>
</g>
</svg>
